<mxfile host="app.diagrams.net" agent="Mozilla/5.0 (Windows NT 10.0; Win64; x64) AppleWebKit/537.36 (KHTML, like Gecko) Chrome/138.0.0.0 Safari/537.36" version="28.0.6">
  <diagram name="Seite-1" id="6OUJ6dS2EP7AUgxyBMDg">
    <mxGraphModel dx="2253" dy="863" grid="1" gridSize="10" guides="1" tooltips="1" connect="1" arrows="1" fold="1" page="1" pageScale="1" pageWidth="827" pageHeight="1169" background="none" math="0" shadow="0">
      <root>
        <mxCell id="0" />
        <mxCell id="1" parent="0" />
        <mxCell id="81-tnvldqZtycC0wdjzs-4" style="edgeStyle=orthogonalEdgeStyle;rounded=0;orthogonalLoop=1;jettySize=auto;html=1;exitX=0.5;exitY=1;exitDx=0;exitDy=0;exitPerimeter=0;entryX=0.5;entryY=0;entryDx=0;entryDy=0;" parent="1" source="81-tnvldqZtycC0wdjzs-1" target="81-tnvldqZtycC0wdjzs-3" edge="1">
          <mxGeometry relative="1" as="geometry" />
        </mxCell>
        <mxCell id="81-tnvldqZtycC0wdjzs-1" value="EEPROM" style="shape=cylinder3;whiteSpace=wrap;html=1;boundedLbl=1;backgroundOutline=1;size=8.52734375;" parent="1" vertex="1">
          <mxGeometry x="295" y="170" width="60" height="60" as="geometry" />
        </mxCell>
        <mxCell id="81-tnvldqZtycC0wdjzs-9" style="edgeStyle=orthogonalEdgeStyle;rounded=0;orthogonalLoop=1;jettySize=auto;html=1;exitX=0.5;exitY=1;exitDx=0;exitDy=0;entryX=0.5;entryY=0;entryDx=0;entryDy=0;" parent="1" source="81-tnvldqZtycC0wdjzs-3" target="81-tnvldqZtycC0wdjzs-6" edge="1">
          <mxGeometry relative="1" as="geometry" />
        </mxCell>
        <mxCell id="81-tnvldqZtycC0wdjzs-32" value="PASS" style="edgeLabel;html=1;align=center;verticalAlign=middle;resizable=0;points=[];" parent="81-tnvldqZtycC0wdjzs-9" vertex="1" connectable="0">
          <mxGeometry x="-0.1492" relative="1" as="geometry">
            <mxPoint as="offset" />
          </mxGeometry>
        </mxCell>
        <mxCell id="81-tnvldqZtycC0wdjzs-80" style="edgeStyle=orthogonalEdgeStyle;rounded=0;orthogonalLoop=1;jettySize=auto;html=1;" parent="1" source="81-tnvldqZtycC0wdjzs-3" edge="1">
          <mxGeometry relative="1" as="geometry">
            <mxPoint x="490" y="450" as="targetPoint" />
          </mxGeometry>
        </mxCell>
        <mxCell id="81-tnvldqZtycC0wdjzs-81" value="INVALID" style="edgeLabel;html=1;align=center;verticalAlign=middle;resizable=0;points=[];" parent="81-tnvldqZtycC0wdjzs-80" vertex="1" connectable="0">
          <mxGeometry x="-0.6451" relative="1" as="geometry">
            <mxPoint as="offset" />
          </mxGeometry>
        </mxCell>
        <mxCell id="81-tnvldqZtycC0wdjzs-3" value="VALIDATION CHECK" style="rhombus;whiteSpace=wrap;html=1;direction=east;" parent="1" vertex="1">
          <mxGeometry x="270" y="270" width="110" height="80" as="geometry" />
        </mxCell>
        <mxCell id="81-tnvldqZtycC0wdjzs-10" style="edgeStyle=orthogonalEdgeStyle;rounded=0;orthogonalLoop=1;jettySize=auto;html=1;exitX=0.5;exitY=1;exitDx=0;exitDy=0;" parent="1" source="81-tnvldqZtycC0wdjzs-6" target="81-tnvldqZtycC0wdjzs-8" edge="1">
          <mxGeometry relative="1" as="geometry" />
        </mxCell>
        <mxCell id="81-tnvldqZtycC0wdjzs-33" value="PASS" style="edgeLabel;html=1;align=center;verticalAlign=middle;resizable=0;points=[];" parent="81-tnvldqZtycC0wdjzs-10" vertex="1" connectable="0">
          <mxGeometry x="-0.1968" y="1" relative="1" as="geometry">
            <mxPoint as="offset" />
          </mxGeometry>
        </mxCell>
        <mxCell id="81-tnvldqZtycC0wdjzs-79" style="edgeStyle=orthogonalEdgeStyle;rounded=0;orthogonalLoop=1;jettySize=auto;html=1;" parent="1" source="81-tnvldqZtycC0wdjzs-6" edge="1">
          <mxGeometry relative="1" as="geometry">
            <mxPoint x="490" y="600" as="targetPoint" />
          </mxGeometry>
        </mxCell>
        <mxCell id="81-tnvldqZtycC0wdjzs-82" value="INVALID" style="edgeLabel;html=1;align=center;verticalAlign=middle;resizable=0;points=[];" parent="81-tnvldqZtycC0wdjzs-79" vertex="1" connectable="0">
          <mxGeometry x="-0.7101" y="3" relative="1" as="geometry">
            <mxPoint as="offset" />
          </mxGeometry>
        </mxCell>
        <mxCell id="81-tnvldqZtycC0wdjzs-6" value="MAGIC COOKIE CHECK" style="rhombus;whiteSpace=wrap;html=1;direction=east;" parent="1" vertex="1">
          <mxGeometry x="260" y="413" width="130" height="80" as="geometry" />
        </mxCell>
        <mxCell id="81-tnvldqZtycC0wdjzs-13" style="edgeStyle=orthogonalEdgeStyle;rounded=0;orthogonalLoop=1;jettySize=auto;html=1;exitX=0.5;exitY=1;exitDx=0;exitDy=0;entryX=0.5;entryY=0;entryDx=0;entryDy=0;" parent="1" source="81-tnvldqZtycC0wdjzs-7" target="81-tnvldqZtycC0wdjzs-12" edge="1">
          <mxGeometry relative="1" as="geometry" />
        </mxCell>
        <mxCell id="81-tnvldqZtycC0wdjzs-35" value="PASS" style="edgeLabel;html=1;align=center;verticalAlign=middle;resizable=0;points=[];" parent="81-tnvldqZtycC0wdjzs-13" vertex="1" connectable="0">
          <mxGeometry x="-0.194" y="-2" relative="1" as="geometry">
            <mxPoint as="offset" />
          </mxGeometry>
        </mxCell>
        <mxCell id="81-tnvldqZtycC0wdjzs-76" style="edgeStyle=orthogonalEdgeStyle;rounded=0;orthogonalLoop=1;jettySize=auto;html=1;exitX=1;exitY=0.5;exitDx=0;exitDy=0;" parent="1" source="81-tnvldqZtycC0wdjzs-7" edge="1">
          <mxGeometry relative="1" as="geometry">
            <mxPoint x="490" y="880" as="targetPoint" />
          </mxGeometry>
        </mxCell>
        <mxCell id="81-tnvldqZtycC0wdjzs-84" value="INVALID" style="edgeLabel;html=1;align=center;verticalAlign=middle;resizable=0;points=[];" parent="81-tnvldqZtycC0wdjzs-76" vertex="1" connectable="0">
          <mxGeometry x="-0.6341" y="-2" relative="1" as="geometry">
            <mxPoint as="offset" />
          </mxGeometry>
        </mxCell>
        <mxCell id="81-tnvldqZtycC0wdjzs-7" value="LENGTH&amp;nbsp;&lt;div&gt;CHECK&lt;/div&gt;" style="rhombus;whiteSpace=wrap;html=1;direction=east;" parent="1" vertex="1">
          <mxGeometry x="270" y="700" width="110" height="80" as="geometry" />
        </mxCell>
        <mxCell id="81-tnvldqZtycC0wdjzs-11" style="edgeStyle=orthogonalEdgeStyle;rounded=0;orthogonalLoop=1;jettySize=auto;html=1;exitX=0.5;exitY=1;exitDx=0;exitDy=0;" parent="1" source="81-tnvldqZtycC0wdjzs-8" target="81-tnvldqZtycC0wdjzs-7" edge="1">
          <mxGeometry relative="1" as="geometry" />
        </mxCell>
        <mxCell id="81-tnvldqZtycC0wdjzs-34" value="PASS" style="edgeLabel;html=1;align=center;verticalAlign=middle;resizable=0;points=[];" parent="81-tnvldqZtycC0wdjzs-11" vertex="1" connectable="0">
          <mxGeometry x="0.0669" y="-1" relative="1" as="geometry">
            <mxPoint as="offset" />
          </mxGeometry>
        </mxCell>
        <mxCell id="81-tnvldqZtycC0wdjzs-78" style="edgeStyle=orthogonalEdgeStyle;rounded=0;orthogonalLoop=1;jettySize=auto;html=1;" parent="1" source="81-tnvldqZtycC0wdjzs-8" edge="1">
          <mxGeometry relative="1" as="geometry">
            <mxPoint x="490" y="740" as="targetPoint" />
          </mxGeometry>
        </mxCell>
        <mxCell id="81-tnvldqZtycC0wdjzs-83" value="INVALID" style="edgeLabel;html=1;align=center;verticalAlign=middle;resizable=0;points=[];" parent="81-tnvldqZtycC0wdjzs-78" vertex="1" connectable="0">
          <mxGeometry x="-0.5891" relative="1" as="geometry">
            <mxPoint as="offset" />
          </mxGeometry>
        </mxCell>
        <mxCell id="81-tnvldqZtycC0wdjzs-8" value="VERSION&amp;nbsp;&lt;div&gt;CHECK&lt;/div&gt;" style="rhombus;whiteSpace=wrap;html=1;direction=east;" parent="1" vertex="1">
          <mxGeometry x="270" y="557" width="110" height="80" as="geometry" />
        </mxCell>
        <mxCell id="81-tnvldqZtycC0wdjzs-17" style="edgeStyle=orthogonalEdgeStyle;rounded=0;orthogonalLoop=1;jettySize=auto;html=1;exitX=0.5;exitY=1;exitDx=0;exitDy=0;entryX=0.5;entryY=0;entryDx=0;entryDy=0;" parent="1" source="81-tnvldqZtycC0wdjzs-12" edge="1">
          <mxGeometry relative="1" as="geometry">
            <mxPoint x="325" y="980" as="targetPoint" />
          </mxGeometry>
        </mxCell>
        <mxCell id="81-tnvldqZtycC0wdjzs-36" value="PASS" style="edgeLabel;html=1;align=center;verticalAlign=middle;resizable=0;points=[];" parent="81-tnvldqZtycC0wdjzs-17" vertex="1" connectable="0">
          <mxGeometry x="-0.264" relative="1" as="geometry">
            <mxPoint as="offset" />
          </mxGeometry>
        </mxCell>
        <mxCell id="81-tnvldqZtycC0wdjzs-75" style="edgeStyle=orthogonalEdgeStyle;rounded=0;orthogonalLoop=1;jettySize=auto;html=1;exitX=1;exitY=0.5;exitDx=0;exitDy=0;" parent="1" source="81-tnvldqZtycC0wdjzs-12" target="81-tnvldqZtycC0wdjzs-44" edge="1">
          <mxGeometry relative="1" as="geometry" />
        </mxCell>
        <mxCell id="81-tnvldqZtycC0wdjzs-85" value="INVALID" style="edgeLabel;html=1;align=center;verticalAlign=middle;resizable=0;points=[];" parent="81-tnvldqZtycC0wdjzs-75" vertex="1" connectable="0">
          <mxGeometry x="-0.4454" y="1" relative="1" as="geometry">
            <mxPoint as="offset" />
          </mxGeometry>
        </mxCell>
        <mxCell id="81-tnvldqZtycC0wdjzs-12" value="CRC&lt;div&gt;CHECK&lt;/div&gt;" style="rhombus;whiteSpace=wrap;html=1;direction=east;" parent="1" vertex="1">
          <mxGeometry x="270" y="840" width="110" height="80" as="geometry" />
        </mxCell>
        <mxCell id="81-tnvldqZtycC0wdjzs-18" value="DATA OK" style="rounded=0;whiteSpace=wrap;html=1;" parent="1" vertex="1">
          <mxGeometry x="265" y="980" width="120" height="60" as="geometry" />
        </mxCell>
        <mxCell id="81-tnvldqZtycC0wdjzs-60" value="" style="edgeStyle=orthogonalEdgeStyle;rounded=0;orthogonalLoop=1;jettySize=auto;html=1;" parent="1" source="81-tnvldqZtycC0wdjzs-44" target="81-tnvldqZtycC0wdjzs-59" edge="1">
          <mxGeometry relative="1" as="geometry" />
        </mxCell>
        <mxCell id="81-tnvldqZtycC0wdjzs-44" value="VALIDATIONBYTE INVALID&amp;nbsp;" style="rounded=0;whiteSpace=wrap;html=1;" parent="1" vertex="1">
          <mxGeometry x="430" y="980" width="120" height="60" as="geometry" />
        </mxCell>
        <mxCell id="81-tnvldqZtycC0wdjzs-71" style="edgeStyle=orthogonalEdgeStyle;rounded=0;orthogonalLoop=1;jettySize=auto;html=1;exitX=1;exitY=0.5;exitDx=0;exitDy=0;entryX=0;entryY=0.5;entryDx=0;entryDy=0;" parent="1" source="81-tnvldqZtycC0wdjzs-59" target="81-tnvldqZtycC0wdjzs-68" edge="1">
          <mxGeometry relative="1" as="geometry" />
        </mxCell>
        <mxCell id="81-tnvldqZtycC0wdjzs-72" value="INVALID" style="edgeLabel;html=1;align=center;verticalAlign=middle;resizable=0;points=[];" parent="81-tnvldqZtycC0wdjzs-71" vertex="1" connectable="0">
          <mxGeometry x="0.1025" y="1" relative="1" as="geometry">
            <mxPoint x="-4" y="1" as="offset" />
          </mxGeometry>
        </mxCell>
        <mxCell id="81-tnvldqZtycC0wdjzs-73" style="edgeStyle=orthogonalEdgeStyle;rounded=0;orthogonalLoop=1;jettySize=auto;html=1;exitX=0.5;exitY=1;exitDx=0;exitDy=0;entryX=0.5;entryY=0;entryDx=0;entryDy=0;" parent="1" source="81-tnvldqZtycC0wdjzs-59" target="81-tnvldqZtycC0wdjzs-61" edge="1">
          <mxGeometry relative="1" as="geometry" />
        </mxCell>
        <mxCell id="81-tnvldqZtycC0wdjzs-74" value="VALID" style="edgeLabel;html=1;align=center;verticalAlign=middle;resizable=0;points=[];" parent="81-tnvldqZtycC0wdjzs-73" vertex="1" connectable="0">
          <mxGeometry x="0.0877" y="2" relative="1" as="geometry">
            <mxPoint y="-7" as="offset" />
          </mxGeometry>
        </mxCell>
        <mxCell id="81-tnvldqZtycC0wdjzs-59" value="CHECK BACKUP" style="whiteSpace=wrap;html=1;rounded=0;" parent="1" vertex="1">
          <mxGeometry x="430" y="1070" width="120" height="60" as="geometry" />
        </mxCell>
        <mxCell id="81-tnvldqZtycC0wdjzs-61" value="MARK VALID" style="whiteSpace=wrap;html=1;rounded=0;" parent="1" vertex="1">
          <mxGeometry x="430" y="1180" width="120" height="60" as="geometry" />
        </mxCell>
        <mxCell id="81-tnvldqZtycC0wdjzs-68" value="RESET SYSTEM TO VALID" style="rounded=0;whiteSpace=wrap;html=1;" parent="1" vertex="1">
          <mxGeometry x="630" y="1070" width="120" height="60" as="geometry" />
        </mxCell>
        <mxCell id="81-tnvldqZtycC0wdjzs-86" value="VALIDATION" style="rounded=0;whiteSpace=wrap;html=1;" parent="1" vertex="1">
          <mxGeometry x="70" y="120" width="120" height="60" as="geometry" />
        </mxCell>
        <mxCell id="81-tnvldqZtycC0wdjzs-89" value="MAGIC COOKIE&amp;nbsp;" style="rounded=0;whiteSpace=wrap;html=1;" parent="1" vertex="1">
          <mxGeometry x="70" y="240" width="120" height="120" as="geometry" />
        </mxCell>
        <mxCell id="81-tnvldqZtycC0wdjzs-90" value="VERSION" style="rounded=0;whiteSpace=wrap;html=1;" parent="1" vertex="1">
          <mxGeometry x="70" y="360" width="120" height="60" as="geometry" />
        </mxCell>
        <mxCell id="81-tnvldqZtycC0wdjzs-91" value="LENGTH" style="rounded=0;whiteSpace=wrap;html=1;" parent="1" vertex="1">
          <mxGeometry x="70" y="420" width="120" height="110" as="geometry" />
        </mxCell>
        <mxCell id="81-tnvldqZtycC0wdjzs-92" value="CRC" style="rounded=0;whiteSpace=wrap;html=1;" parent="1" vertex="1">
          <mxGeometry x="70" y="180" width="120" height="60" as="geometry" />
        </mxCell>
        <mxCell id="81-tnvldqZtycC0wdjzs-93" value="BYTE 512&lt;div&gt;-&lt;/div&gt;&lt;div&gt;BYTE 512 + LENGTH-1&lt;/div&gt;" style="rounded=0;whiteSpace=wrap;html=1;" parent="1" vertex="1">
          <mxGeometry x="65" y="550" width="130" height="60" as="geometry" />
        </mxCell>
        <mxCell id="81-tnvldqZtycC0wdjzs-100" value="BYTE 505" style="text;html=1;align=center;verticalAlign=middle;resizable=0;points=[];autosize=1;strokeColor=none;fillColor=none;" parent="1" vertex="1">
          <mxGeometry x="-5" y="135" width="80" height="30" as="geometry" />
        </mxCell>
        <mxCell id="81-tnvldqZtycC0wdjzs-102" value="BYTE 510-511" style="text;html=1;align=center;verticalAlign=middle;resizable=0;points=[];autosize=1;strokeColor=none;fillColor=none;" parent="1" vertex="1">
          <mxGeometry x="-25" y="470" width="100" height="30" as="geometry" />
        </mxCell>
        <mxCell id="81-tnvldqZtycC0wdjzs-107" value="BYTE 506" style="text;html=1;align=center;verticalAlign=middle;resizable=0;points=[];autosize=1;strokeColor=none;fillColor=none;" parent="1" vertex="1">
          <mxGeometry x="-5" y="195" width="80" height="30" as="geometry" />
        </mxCell>
        <mxCell id="83MKzRhm6-gC6N7kTeKc-1" value="VALIDATION" style="rounded=0;whiteSpace=wrap;html=1;" parent="1" vertex="1">
          <mxGeometry x="-150" y="120" width="120" height="60" as="geometry" />
        </mxCell>
        <mxCell id="83MKzRhm6-gC6N7kTeKc-2" value="MAGIC COOKIE&amp;nbsp;" style="rounded=0;whiteSpace=wrap;html=1;" parent="1" vertex="1">
          <mxGeometry x="-150" y="240" width="120" height="120" as="geometry" />
        </mxCell>
        <mxCell id="83MKzRhm6-gC6N7kTeKc-3" value="VERSION" style="rounded=0;whiteSpace=wrap;html=1;" parent="1" vertex="1">
          <mxGeometry x="-150" y="360" width="120" height="60" as="geometry" />
        </mxCell>
        <mxCell id="83MKzRhm6-gC6N7kTeKc-4" value="LENGTH" style="rounded=0;whiteSpace=wrap;html=1;" parent="1" vertex="1">
          <mxGeometry x="-150" y="420" width="120" height="110" as="geometry" />
        </mxCell>
        <mxCell id="83MKzRhm6-gC6N7kTeKc-5" value="CRC" style="rounded=0;whiteSpace=wrap;html=1;" parent="1" vertex="1">
          <mxGeometry x="-150" y="180" width="120" height="60" as="geometry" />
        </mxCell>
        <mxCell id="83MKzRhm6-gC6N7kTeKc-6" value="BYTE 128&lt;div&gt;-&lt;/div&gt;&lt;div&gt;BYTE 128 + LENGTH-1&lt;/div&gt;" style="rounded=0;whiteSpace=wrap;html=1;" parent="1" vertex="1">
          <mxGeometry x="-155" y="550" width="130" height="60" as="geometry" />
        </mxCell>
        <mxCell id="83MKzRhm6-gC6N7kTeKc-7" value="BYTE 0" style="text;html=1;align=center;verticalAlign=middle;resizable=0;points=[];autosize=1;strokeColor=none;fillColor=none;" parent="1" vertex="1">
          <mxGeometry x="-215" y="135" width="60" height="30" as="geometry" />
        </mxCell>
        <mxCell id="83MKzRhm6-gC6N7kTeKc-8" value="BYTE 4" style="text;html=1;align=center;verticalAlign=middle;resizable=0;points=[];autosize=1;strokeColor=none;fillColor=none;" parent="1" vertex="1">
          <mxGeometry x="-220" y="375" width="60" height="30" as="geometry" />
        </mxCell>
        <mxCell id="83MKzRhm6-gC6N7kTeKc-9" value="BYTE 1" style="text;html=1;align=center;verticalAlign=middle;resizable=0;points=[];autosize=1;strokeColor=none;fillColor=none;" parent="1" vertex="1">
          <mxGeometry x="-215" y="195" width="60" height="30" as="geometry" />
        </mxCell>
        <mxCell id="83MKzRhm6-gC6N7kTeKc-10" value="BYTE 5-6" style="text;html=1;align=center;verticalAlign=middle;resizable=0;points=[];autosize=1;strokeColor=none;fillColor=none;" parent="1" vertex="1">
          <mxGeometry x="-240" y="460" width="80" height="30" as="geometry" />
        </mxCell>
        <mxCell id="83MKzRhm6-gC6N7kTeKc-11" value="BYTE 2-3" style="text;html=1;align=center;verticalAlign=middle;resizable=0;points=[];autosize=1;strokeColor=none;fillColor=none;" parent="1" vertex="1">
          <mxGeometry x="-240" y="285" width="80" height="30" as="geometry" />
        </mxCell>
        <mxCell id="83MKzRhm6-gC6N7kTeKc-12" value="BYTE 509" style="text;html=1;align=center;verticalAlign=middle;resizable=0;points=[];autosize=1;strokeColor=none;fillColor=none;" parent="1" vertex="1">
          <mxGeometry x="-5" y="375" width="80" height="30" as="geometry" />
        </mxCell>
        <mxCell id="83MKzRhm6-gC6N7kTeKc-13" value="BYTE 507-508" style="text;html=1;align=center;verticalAlign=middle;resizable=0;points=[];autosize=1;strokeColor=none;fillColor=none;" parent="1" vertex="1">
          <mxGeometry x="-25" y="295" width="100" height="30" as="geometry" />
        </mxCell>
        <mxCell id="83MKzRhm6-gC6N7kTeKc-23" value="" style="edgeStyle=orthogonalEdgeStyle;rounded=0;orthogonalLoop=1;jettySize=auto;html=1;" parent="1" source="83MKzRhm6-gC6N7kTeKc-16" target="83MKzRhm6-gC6N7kTeKc-18" edge="1">
          <mxGeometry relative="1" as="geometry" />
        </mxCell>
        <mxCell id="83MKzRhm6-gC6N7kTeKc-16" value="set MAGIC COOKIE" style="rounded=0;whiteSpace=wrap;html=1;" parent="1" vertex="1">
          <mxGeometry x="630" y="225" width="120" height="60" as="geometry" />
        </mxCell>
        <mxCell id="83MKzRhm6-gC6N7kTeKc-25" value="" style="edgeStyle=orthogonalEdgeStyle;rounded=0;orthogonalLoop=1;jettySize=auto;html=1;" parent="1" source="83MKzRhm6-gC6N7kTeKc-18" target="83MKzRhm6-gC6N7kTeKc-24" edge="1">
          <mxGeometry relative="1" as="geometry" />
        </mxCell>
        <mxCell id="83MKzRhm6-gC6N7kTeKc-18" value="set VERSION" style="whiteSpace=wrap;html=1;rounded=0;" parent="1" vertex="1">
          <mxGeometry x="630" y="315" width="120" height="60" as="geometry" />
        </mxCell>
        <mxCell id="83MKzRhm6-gC6N7kTeKc-22" value="" style="edgeStyle=orthogonalEdgeStyle;rounded=0;orthogonalLoop=1;jettySize=auto;html=1;" parent="1" source="83MKzRhm6-gC6N7kTeKc-21" target="83MKzRhm6-gC6N7kTeKc-16" edge="1">
          <mxGeometry relative="1" as="geometry" />
        </mxCell>
        <mxCell id="83MKzRhm6-gC6N7kTeKc-21" value="reset to default" style="shape=process;whiteSpace=wrap;html=1;backgroundOutline=1;" parent="1" vertex="1">
          <mxGeometry x="630" y="130" width="120" height="60" as="geometry" />
        </mxCell>
        <mxCell id="83MKzRhm6-gC6N7kTeKc-27" value="" style="edgeStyle=orthogonalEdgeStyle;rounded=0;orthogonalLoop=1;jettySize=auto;html=1;entryX=0.5;entryY=0;entryDx=0;entryDy=0;" parent="1" source="83MKzRhm6-gC6N7kTeKc-24" target="83MKzRhm6-gC6N7kTeKc-36" edge="1">
          <mxGeometry relative="1" as="geometry">
            <mxPoint x="690" y="500" as="targetPoint" />
          </mxGeometry>
        </mxCell>
        <mxCell id="83MKzRhm6-gC6N7kTeKc-24" value="set LENGTH" style="whiteSpace=wrap;html=1;rounded=0;" parent="1" vertex="1">
          <mxGeometry x="630" y="405" width="120" height="60" as="geometry" />
        </mxCell>
        <mxCell id="83MKzRhm6-gC6N7kTeKc-37" value="" style="edgeStyle=orthogonalEdgeStyle;rounded=0;orthogonalLoop=1;jettySize=auto;html=1;" parent="1" target="83MKzRhm6-gC6N7kTeKc-36" edge="1">
          <mxGeometry relative="1" as="geometry">
            <mxPoint x="690" y="560" as="sourcePoint" />
          </mxGeometry>
        </mxCell>
        <mxCell id="83MKzRhm6-gC6N7kTeKc-31" value="" style="edgeStyle=orthogonalEdgeStyle;rounded=0;orthogonalLoop=1;jettySize=auto;html=1;" parent="1" source="83MKzRhm6-gC6N7kTeKc-28" target="83MKzRhm6-gC6N7kTeKc-30" edge="1">
          <mxGeometry relative="1" as="geometry" />
        </mxCell>
        <mxCell id="83MKzRhm6-gC6N7kTeKc-28" value="set CRC" style="whiteSpace=wrap;html=1;rounded=0;" parent="1" vertex="1">
          <mxGeometry x="630" y="600" width="120" height="60" as="geometry" />
        </mxCell>
        <mxCell id="83MKzRhm6-gC6N7kTeKc-33" value="" style="edgeStyle=orthogonalEdgeStyle;rounded=0;orthogonalLoop=1;jettySize=auto;html=1;" parent="1" source="83MKzRhm6-gC6N7kTeKc-30" target="83MKzRhm6-gC6N7kTeKc-32" edge="1">
          <mxGeometry relative="1" as="geometry" />
        </mxCell>
        <mxCell id="83MKzRhm6-gC6N7kTeKc-30" value="verify CRC" style="whiteSpace=wrap;html=1;rounded=0;" parent="1" vertex="1">
          <mxGeometry x="630" y="690" width="120" height="60" as="geometry" />
        </mxCell>
        <mxCell id="83MKzRhm6-gC6N7kTeKc-32" value="set Validation BYTE" style="whiteSpace=wrap;html=1;rounded=0;" parent="1" vertex="1">
          <mxGeometry x="630" y="780" width="120" height="60" as="geometry" />
        </mxCell>
        <mxCell id="83MKzRhm6-gC6N7kTeKc-38" value="" style="edgeStyle=orthogonalEdgeStyle;rounded=0;orthogonalLoop=1;jettySize=auto;html=1;" parent="1" source="83MKzRhm6-gC6N7kTeKc-36" target="83MKzRhm6-gC6N7kTeKc-28" edge="1">
          <mxGeometry relative="1" as="geometry" />
        </mxCell>
        <mxCell id="83MKzRhm6-gC6N7kTeKc-36" value="calculate CRC" style="rounded=0;whiteSpace=wrap;html=1;" parent="1" vertex="1">
          <mxGeometry x="630" y="505" width="120" height="60" as="geometry" />
        </mxCell>
        <mxCell id="83MKzRhm6-gC6N7kTeKc-39" value="MAGIC COOKIE" style="rounded=0;whiteSpace=wrap;html=1;" parent="1" vertex="1">
          <mxGeometry x="-510" y="130" width="120" height="120" as="geometry" />
        </mxCell>
        <mxCell id="83MKzRhm6-gC6N7kTeKc-40" value="VERSION" style="rounded=0;whiteSpace=wrap;html=1;" parent="1" vertex="1">
          <mxGeometry x="-510" y="250" width="120" height="60" as="geometry" />
        </mxCell>
        <mxCell id="83MKzRhm6-gC6N7kTeKc-41" value="LENGTH" style="rounded=0;whiteSpace=wrap;html=1;" parent="1" vertex="1">
          <mxGeometry x="-510" y="310" width="120" height="120" as="geometry" />
        </mxCell>
      </root>
    </mxGraphModel>
  </diagram>
</mxfile>
